#Comment line ignore any data following # character 
#Hierarchical Translation and Rotation (.htr) file 
[Header]	
#Header keywords are followed by a single value 
FileType HTR		#Single word string
DataType HTRS		#Translation followed by rotation and scale data
FileVersion 1		#integer
NumSegments 84		#integer
NumFrames 2		#integer
DataFrameRate 30		#integer, data frame rate in this file
EulerRotationOrder ZYX
CalibrationUnits mm
RotationUnits Degrees
GlobalAxisofGravity Y
BoneLengthAxis Y
ScaleFactor 1.00
[SegmentNames&Hierarchy]
#CHILD	PARENT
MASTER GLOBAL
root MASTER
chest root
L_mid_tent01 root
R_mid_tent01 root
spine01 root
Bip01_Neck chest
L_humerus chest
R_humerus chest
weapon_bone chest
Bip01_Head Bip01_Neck
eye_left_bone Bip01_Head
eye_right_bone Bip01_Head
L_forearm L_humerus
L_front_hand L_forearm
L_weapon_bone L_forearm
L_front_hand01_01 L_front_hand
L_front_hand02_01 L_front_hand
L_front_hand03_01 L_front_hand
L_front_hand01_02 L_front_hand01_01
L_front_hand02_02 L_front_hand02_01
L_front_hand03_02 L_front_hand03_01
R_forearm R_humerus
R_front_hand R_forearm
R_weapon_bone R_forearm
R_front_hand01_01 R_front_hand
R_front_hand02_01 R_front_hand
R_front_hand03_01 R_front_hand
R_front_hand01_02 R_front_hand01_01
R_front_hand02_02 R_front_hand02_01
R_front_hand03_02 R_front_hand03_01
null_rope01_connect L_mid_tent01
Rope1_Seg01 null_rope01_connect
Rope1_Seg02 Rope1_Seg01
Rope1_Seg03 Rope1_Seg02
Rope1_Seg04 Rope1_Seg03
Rope1_Seg05 Rope1_Seg04
Rope1_Seg06 Rope1_Seg05
Rope1_Seg07 Rope1_Seg06
Rope1_Seg09 Rope1_Seg07
L_mid_hand01 Rope1_Seg09
L_mid_hand02 Rope1_Seg09
L_mid_hand03 Rope1_Seg09
null_rope02_connect R_mid_tent01
Rope2_Seg01 null_rope02_connect
Rope2_Seg02 Rope2_Seg01
Rope2_Seg03 Rope2_Seg02
Rope2_Seg04 Rope2_Seg03
Rope2_Seg05 Rope2_Seg04
Rope2_Seg06 Rope2_Seg05
Rope2_Seg07 Rope2_Seg06
Rope2_Seg09 Rope2_Seg07
R_mid_hand01 Rope2_Seg09
R_mid_hand02 Rope2_Seg09
R_mid_hand03 Rope2_Seg09
spine02 spine01
spine03 spine02
pelvis spine03
null_rope03_connect pelvis
null_rope04_connect pelvis
Rope3_Seg01 null_rope03_connect
Rope3_Seg02 Rope3_Seg01
Rope3_Seg03 Rope3_Seg02
Rope3_Seg04 Rope3_Seg03
Rope3_Seg05 Rope3_Seg04
Rope3_Seg06 Rope3_Seg05
Rope3_Seg07 Rope3_Seg06
Rope3_Seg08 Rope3_Seg07
Rope3_Seg09 Rope3_Seg08
R_rear_hand01 Rope3_Seg09
R_rear_hand02 Rope3_Seg09
R_rear_hand03 Rope3_Seg09
Rope4_Seg01 null_rope04_connect
Rope4_Seg02 Rope4_Seg01
Rope4_Seg03 Rope4_Seg02
Rope4_Seg04 Rope4_Seg03
Rope4_Seg05 Rope4_Seg04
Rope4_Seg06 Rope4_Seg05
Rope4_Seg07 Rope4_Seg06
Rope4_Seg08 Rope4_Seg07
Rope4_Seg09 Rope4_Seg08
L_rear_hand01 Rope4_Seg09
L_rear_hand02 Rope4_Seg09
L_rear_hand03 Rope4_Seg09
[BasePosition]
#SegmentName Tx, Ty, Tz, Rx, Ry, Rz, BoneLength
MASTER 0.000000 0.000000 0.000000 -90.000000 0.000000 0.000000 10.000000 
root 0.000000 0.000000 0.000000 0.000000 0.000000 0.000000 10.000000 
chest 0.000000 0.000000 0.000000 0.000000 0.000000 0.000000 10.000000 
L_mid_tent01 0.000000 0.000000 0.000000 0.000000 0.000000 0.000000 10.000000 
R_mid_tent01 0.000000 0.000000 0.000000 0.000000 0.000000 0.000000 10.000000 
spine01 0.000000 0.000000 0.000000 0.000000 0.000000 0.000000 10.000000 
Bip01_Neck 0.000000 0.000000 0.000000 0.000000 0.000000 0.000000 10.000000 
L_humerus 0.000000 0.000000 0.000000 0.000000 0.000000 0.000000 10.000000 
R_humerus 0.000000 0.000000 0.000000 0.000000 0.000000 0.000000 10.000000 
weapon_bone 0.000000 0.000000 0.000000 0.000000 0.000000 0.000000 10.000000 
Bip01_Head 0.000000 0.000000 0.000000 0.000000 0.000000 0.000000 10.000000 
eye_left_bone 0.000000 0.000000 0.000000 0.000000 0.000000 0.000000 10.000000 
eye_right_bone 0.000000 0.000000 0.000000 0.000000 0.000000 0.000000 10.000000 
L_forearm 0.000000 0.000000 0.000000 0.000000 0.000000 0.000000 10.000000 
L_front_hand 0.000000 0.000000 0.000000 0.000000 0.000000 0.000000 10.000000 
L_weapon_bone 0.000000 0.000000 0.000000 0.000000 0.000000 0.000000 10.000000 
L_front_hand01_01 0.000000 0.000000 0.000000 0.000000 0.000000 0.000000 10.000000 
L_front_hand02_01 0.000000 0.000000 0.000000 0.000000 0.000000 0.000000 10.000000 
L_front_hand03_01 0.000000 0.000000 0.000000 0.000000 0.000000 0.000000 10.000000 
L_front_hand01_02 0.000000 0.000000 0.000000 0.000000 0.000000 0.000000 10.000000 
L_front_hand02_02 0.000000 0.000000 0.000000 0.000000 0.000000 0.000000 10.000000 
L_front_hand03_02 0.000000 0.000000 0.000000 0.000000 0.000000 0.000000 10.000000 
R_forearm 0.000000 0.000000 0.000000 0.000000 0.000000 0.000000 10.000000 
R_front_hand 0.000000 0.000000 0.000000 0.000000 0.000000 0.000000 10.000000 
R_weapon_bone 0.000000 0.000000 0.000000 0.000000 0.000000 0.000000 10.000000 
R_front_hand01_01 0.000000 0.000000 0.000000 0.000000 0.000000 0.000000 10.000000 
R_front_hand02_01 0.000000 0.000000 0.000000 0.000000 0.000000 0.000000 10.000000 
R_front_hand03_01 0.000000 0.000000 0.000000 0.000000 0.000000 0.000000 10.000000 
R_front_hand01_02 0.000000 0.000000 0.000000 0.000000 0.000000 0.000000 10.000000 
R_front_hand02_02 0.000000 0.000000 0.000000 0.000000 0.000000 0.000000 10.000000 
R_front_hand03_02 0.000000 0.000000 0.000000 0.000000 0.000000 0.000000 10.000000 
null_rope01_connect 0.000000 0.000000 0.000000 0.000000 0.000000 0.000000 10.000000 
Rope1_Seg01 0.000000 0.000000 0.000000 0.000000 0.000000 0.000000 10.000000 
Rope1_Seg02 0.000000 0.000000 0.000000 0.000000 0.000000 0.000000 10.000000 
Rope1_Seg03 0.000000 0.000000 0.000000 0.000000 0.000000 0.000000 10.000000 
Rope1_Seg04 0.000000 0.000000 0.000000 0.000000 0.000000 0.000000 10.000000 
Rope1_Seg05 0.000000 0.000000 0.000000 0.000000 0.000000 0.000000 10.000000 
Rope1_Seg06 0.000000 0.000000 0.000000 0.000000 0.000000 0.000000 10.000000 
Rope1_Seg07 0.000000 0.000000 0.000000 0.000000 0.000000 0.000000 10.000000 
Rope1_Seg09 0.000000 0.000000 0.000000 0.000000 0.000000 0.000000 10.000000 
L_mid_hand01 0.000000 0.000000 0.000000 0.000000 0.000000 0.000000 10.000000 
L_mid_hand02 0.000000 0.000000 0.000000 0.000000 0.000000 0.000000 10.000000 
L_mid_hand03 0.000000 0.000000 0.000000 0.000000 0.000000 0.000000 10.000000 
null_rope02_connect 0.000000 0.000000 0.000000 0.000000 0.000000 0.000000 10.000000 
Rope2_Seg01 0.000000 0.000000 0.000000 0.000000 0.000000 0.000000 10.000000 
Rope2_Seg02 0.000000 0.000000 0.000000 0.000000 0.000000 0.000000 10.000000 
Rope2_Seg03 0.000000 0.000000 0.000000 0.000000 0.000000 0.000000 10.000000 
Rope2_Seg04 0.000000 0.000000 0.000000 0.000000 0.000000 0.000000 10.000000 
Rope2_Seg05 0.000000 0.000000 0.000000 0.000000 0.000000 0.000000 10.000000 
Rope2_Seg06 0.000000 0.000000 0.000000 0.000000 0.000000 0.000000 10.000000 
Rope2_Seg07 0.000000 0.000000 0.000000 0.000000 0.000000 0.000000 10.000000 
Rope2_Seg09 0.000000 0.000000 0.000000 0.000000 0.000000 0.000000 10.000000 
R_mid_hand01 0.000000 0.000000 0.000000 0.000000 0.000000 0.000000 10.000000 
R_mid_hand02 0.000000 0.000000 0.000000 0.000000 0.000000 0.000000 10.000000 
R_mid_hand03 0.000000 0.000000 0.000000 0.000000 0.000000 0.000000 10.000000 
spine02 0.000000 0.000000 0.000000 0.000000 0.000000 0.000000 10.000000 
spine03 0.000000 0.000000 0.000000 0.000000 0.000000 0.000000 10.000000 
pelvis 0.000000 0.000000 0.000000 0.000000 0.000000 0.000000 10.000000 
null_rope03_connect 0.000000 0.000000 0.000000 0.000000 0.000000 0.000000 10.000000 
null_rope04_connect 0.000000 0.000000 0.000000 0.000000 0.000000 0.000000 10.000000 
Rope3_Seg01 0.000000 0.000000 0.000000 0.000000 0.000000 0.000000 10.000000 
Rope3_Seg02 0.000000 0.000000 0.000000 0.000000 0.000000 0.000000 10.000000 
Rope3_Seg03 0.000000 0.000000 0.000000 0.000000 0.000000 0.000000 10.000000 
Rope3_Seg04 0.000000 0.000000 0.000000 0.000000 0.000000 0.000000 10.000000 
Rope3_Seg05 0.000000 0.000000 0.000000 0.000000 0.000000 0.000000 10.000000 
Rope3_Seg06 0.000000 0.000000 0.000000 0.000000 0.000000 0.000000 10.000000 
Rope3_Seg07 0.000000 0.000000 0.000000 0.000000 0.000000 0.000000 10.000000 
Rope3_Seg08 0.000000 0.000000 0.000000 0.000000 0.000000 0.000000 10.000000 
Rope3_Seg09 0.000000 0.000000 0.000000 0.000000 0.000000 0.000000 10.000000 
R_rear_hand01 0.000000 0.000000 0.000000 0.000000 0.000000 0.000000 10.000000 
R_rear_hand02 0.000000 0.000000 0.000000 0.000000 0.000000 0.000000 10.000000 
R_rear_hand03 0.000000 0.000000 0.000000 0.000000 0.000000 0.000000 10.000000 
Rope4_Seg01 0.000000 0.000000 0.000000 0.000000 0.000000 0.000000 10.000000 
Rope4_Seg02 0.000000 0.000000 0.000000 0.000000 0.000000 0.000000 10.000000 
Rope4_Seg03 0.000000 0.000000 0.000000 0.000000 0.000000 0.000000 10.000000 
Rope4_Seg04 0.000000 0.000000 0.000000 0.000000 0.000000 0.000000 10.000000 
Rope4_Seg05 0.000000 0.000000 0.000000 0.000000 0.000000 0.000000 10.000000 
Rope4_Seg06 0.000000 0.000000 0.000000 0.000000 0.000000 0.000000 10.000000 
Rope4_Seg07 0.000000 0.000000 0.000000 0.000000 0.000000 0.000000 10.000000 
Rope4_Seg08 0.000000 0.000000 0.000000 0.000000 0.000000 0.000000 10.000000 
Rope4_Seg09 0.000000 0.000000 0.000000 0.000000 0.000000 0.000000 10.000000 
L_rear_hand01 0.000000 0.000000 0.000000 0.000000 0.000000 0.000000 10.000000 
L_rear_hand02 0.000000 0.000000 0.000000 0.000000 0.000000 0.000000 10.000000 
L_rear_hand03 0.000000 0.000000 0.000000 0.000000 0.000000 0.000000 10.000000 
#Beginning of Data. Separated by tabs
#Fr	Tx	Ty	Tz	Rx	Ry	Rz	SF
[MASTER]
39 -0.000717 4444.484375 5167.332031 0.001660 0.001660 0.001660 6815.772949
40 -0.000726 4492.270020 5145.652832 0.001660 0.001660 0.001660 6830.683105
[root]
39 -196.694595 -248.837799 557.665039 -88.581902 -10.449949 -90.639961 641.560059
40 -227.769669 -224.629303 612.695740 -85.543213 -10.953885 -90.616028 691.182617
[chest]
39 -84.512650 -34.090519 0.000000 1.462806 5.131890 152.156982 91.129311
40 -84.512650 -34.090519 0.000000 4.509615 5.256509 150.584290 91.129311
[L_mid_tent01]
39 27.299152 22.179422 -249.918701 -0.173847 36.621189 68.161697 252.381714
40 27.299154 22.179430 -249.918701 -2.225420 35.790913 64.290688 252.381714
[R_mid_tent01]
39 23.228794 24.509907 226.238495 161.842850 -26.101656 83.323860 228.744751
40 23.228794 24.509907 226.238495 162.845123 -26.434505 81.775276 228.744751
[spine01]
39 -0.361383 -0.195265 0.000000 0.001952 0.001304 22.493923 0.410763
40 -0.361383 -0.195265 0.000000 0.001951 0.001305 22.455523 0.410763
[Bip01_Neck]
39 165.484543 71.581718 0.000119 176.643677 -1.657967 43.431911 180.302734
40 165.484543 71.581718 0.000119 176.643677 -1.657967 43.431911 180.302734
[L_humerus]
39 -13.983130 -135.272980 -120.471481 172.179993 1.425513 -89.778122 181.680161
40 -13.983130 -135.272980 -120.471481 172.044449 8.559237 -90.829338 181.680161
[R_humerus]
39 -13.983309 -135.273102 125.287651 -177.014343 2.678859 -85.399727 184.909012
40 -13.983309 -135.273102 125.287651 -176.953171 -4.454657 -85.849861 184.909012
[weapon_bone]
39 235.964890 -300.705902 0.000000 0.000000 -89.951546 -128.212341 382.234833
40 235.964890 -300.705902 0.000000 0.000000 -89.951546 -128.212341 382.234833
[Bip01_Head]
39 213.365784 185.934433 8.951046 5.200446 6.151311 -43.834991 283.154907
40 213.378296 185.899414 9.402170 5.200446 6.151312 -43.834995 283.155945
[eye_left_bone]
39 -24.626970 125.451866 -64.772606 0.000000 -90.000000 -99.840431 143.318359
40 -24.626970 125.451866 -64.772606 0.000000 -90.000000 -99.840431 143.318359
[eye_right_bone]
39 -24.626970 125.451866 64.327362 0.000000 -89.965736 80.156380 143.117676
40 -24.626970 125.451866 64.327362 0.000000 -89.965736 80.156380 143.117676
[L_forearm]
39 322.776093 0.000000 -0.000119 0.000267 -0.002332 -103.075569 322.776093
40 322.776093 0.000000 -0.000119 0.000275 -0.002331 -103.475128 322.776093
[L_front_hand]
39 241.149185 -0.042021 -3.300071 -178.667816 -1.835447 -27.422348 241.171753
40 241.149185 -0.042021 -3.300071 -143.933167 -1.838645 -27.422310 241.171753
[L_weapon_bone]
39 156.183838 0.000000 0.000000 0.000014 0.000007 0.000001 156.183838
40 156.183838 0.000000 0.000000 0.000014 0.000007 0.000001 156.183838
[L_front_hand01_01]
39 86.095154 20.947098 -0.655860 0.190719 -0.567738 19.381495 88.609184
40 86.095154 20.947098 -0.655860 0.052208 -0.596514 32.957447 88.609184
[L_front_hand02_01]
39 86.935165 -11.437475 24.513514 118.357124 -17.695143 -9.664768 91.046425
40 86.935165 -11.437475 24.513514 121.318733 -29.491083 -17.021791 91.046425
[L_front_hand03_01]
39 86.637497 -14.123976 -20.424902 -119.638580 16.398922 -11.796502 90.126129
40 86.637497 -14.123976 -20.424902 -122.512970 28.044920 -19.349415 90.126129
[L_front_hand01_02]
39 71.020905 -0.000179 0.000030 0.000621 0.002264 -59.336697 71.020905
40 71.020905 -0.000179 0.000030 0.000776 0.002215 -51.376778 71.020905
[L_front_hand02_02]
39 71.020927 -0.000119 0.000060 0.000621 0.002264 -59.336697 71.020927
40 71.020927 -0.000119 0.000060 0.000776 0.002215 -51.376778 71.020927
[L_front_hand03_02]
39 71.020905 -0.000060 0.000060 0.000621 0.002264 -59.336697 71.020905
40 71.020905 -0.000060 0.000060 0.000776 0.002215 -51.376778 71.020905
[R_forearm]
39 322.776428 -0.000060 0.000030 0.207246 0.040339 -101.661606 322.776428
40 322.776428 -0.000060 0.000030 0.207497 0.041551 -102.065643 322.776428
[R_front_hand]
39 238.847015 -0.006795 2.210259 -2.635373 -10.645462 -26.312504 238.857239
40 238.847015 -0.006795 2.210259 -22.135874 -10.644416 -26.315893 238.857239
[R_weapon_bone]
39 155.664093 0.002503 -0.000030 0.003487 0.001180 -90.988930 155.664078
40 155.664093 0.002503 -0.000030 0.003487 0.001180 -90.988930 155.664078
[R_front_hand01_01]
39 87.624611 14.231146 22.918642 -119.067329 -21.334938 11.888138 91.683487
40 87.624611 14.231146 22.918642 -122.500046 -32.627838 19.410820 91.683487
[R_front_hand02_01]
39 89.356956 14.367283 -19.491137 120.392410 20.256422 14.391533 92.579636
40 89.356956 14.367283 -19.491137 123.779938 31.396151 22.120651 92.579636
[R_front_hand03_01]
39 87.286232 -22.307278 -0.143439 -0.235381 -0.386459 -23.768681 90.091743
40 87.286232 -22.307278 -0.143439 -0.141180 -0.431151 -36.894054 90.091743
[R_front_hand01_02]
39 71.020905 0.000060 0.000119 0.002324 0.000326 74.038872 71.020905
40 71.020905 0.000060 0.000119 0.002301 0.000464 67.213310 71.020905
[R_front_hand02_02]
39 71.020844 -0.000030 -0.000119 0.002324 0.000326 74.038872 71.020836
40 71.020844 -0.000030 -0.000119 0.002301 0.000464 67.213310 71.020836
[R_front_hand03_02]
39 71.020905 0.000000 0.000030 0.002324 0.000326 74.038872 71.020905
40 71.020905 0.000000 0.000030 0.002301 0.000464 67.213310 71.020905
[null_rope01_connect]
39 328.732483 0.000000 -0.000238 -146.523727 -54.343220 178.413559 328.732483
40 328.732483 0.000000 -0.000238 -143.705048 -57.886223 178.985275 328.732483
[Rope1_Seg01]
39 -0.000025 0.000012 0.000047 116.277794 -23.808813 148.092941 0.000055
40 -0.000025 0.000011 0.000044 114.946686 -14.885937 147.882477 0.000052
[Rope1_Seg02]
39 139.999863 -0.000179 0.000000 -1.325341 -8.882374 -14.580132 139.999863
40 139.999863 -0.000179 0.000000 -0.543182 -6.051326 -12.071593 139.999863
[Rope1_Seg03]
39 139.999924 0.000060 -0.000060 0.856544 -12.096704 -18.792816 139.999924
40 139.999924 0.000060 -0.000060 1.591632 -9.714676 -17.394022 139.999924
[Rope1_Seg04]
39 139.999924 -0.000060 -0.000119 2.938841 -9.740851 -19.167734 139.999924
40 139.999924 -0.000060 -0.000119 4.483987 -9.992294 -20.042021 139.999924
[Rope1_Seg05]
39 139.999832 0.000119 -0.000060 18.900156 -11.834080 -44.903255 139.999832
40 139.999832 0.000119 -0.000060 22.436281 -10.647916 -46.063881 139.999832
[Rope1_Seg06]
39 139.999954 0.000119 -0.000060 17.788160 -13.121988 -22.809639 139.999954
40 139.999954 0.000119 -0.000060 19.767466 -13.471580 -21.929243 139.999954
[Rope1_Seg07]
39 139.999985 0.000060 0.000000 6.167292 -6.745534 -6.318539 139.999985
40 139.999985 0.000060 0.000000 6.431058 -6.860148 -5.586524 139.999985
[Rope1_Seg09]
39 121.602913 0.000119 -0.000089 -89.793175 -1.359789 0.847147 121.602913
40 121.602913 0.000119 -0.000089 -89.793175 -1.359789 0.847147 121.602913
[L_mid_hand01]
39 103.859421 1.038730 8.195221 130.544373 -67.584534 -38.866943 104.187431
40 103.859421 1.038730 8.195221 130.544373 -67.584534 -38.866943 104.187431
[L_mid_hand02]
39 105.572853 -4.139662 -10.864139 -168.923172 43.409309 -73.498886 106.211075
40 105.572853 -4.139662 -10.864139 -168.923172 43.409309 -73.498894 106.211075
[L_mid_hand03]
39 104.641464 17.579376 -3.913581 -6.012627 17.808174 74.893669 106.179977
40 104.641464 17.579376 -3.913581 -6.012626 17.808172 74.893661 106.179977
[null_rope02_connect]
39 328.732849 0.000179 -0.000119 -128.333206 58.034344 29.908678 328.732849
40 328.732849 0.000179 -0.000119 -131.172699 55.914143 24.611095 328.732849
[Rope2_Seg01]
39 0.000065 0.000047 0.000000 -42.499969 -14.960896 29.485491 0.000080
40 0.000065 0.000044 0.000000 -44.894344 -2.850175 27.218178 0.000079
[Rope2_Seg02]
39 139.999741 -0.000060 -0.000119 -1.069126 3.313571 4.751863 139.999756
40 139.999741 -0.000060 -0.000119 -1.871676 3.504708 4.978804 139.999756
[Rope2_Seg03]
39 140.000107 0.000030 0.000000 -1.481332 2.554465 7.290714 140.000107
40 140.000107 0.000030 0.000000 -2.287385 0.603285 7.771883 140.000107
[Rope2_Seg04]
39 139.999802 0.000000 -0.000060 -1.541993 0.758592 9.742374 139.999802
40 139.999802 0.000000 -0.000060 -3.514313 7.887055 11.414995 139.999802
[Rope2_Seg05]
39 139.999985 -0.000060 0.000119 -11.030012 54.979137 32.124630 139.999985
40 139.999985 -0.000060 0.000119 -24.384306 54.494637 29.818977 139.999985
[Rope2_Seg06]
39 139.999893 -0.000030 -0.000119 -30.657093 24.299803 29.488041 139.999893
40 139.999893 -0.000030 -0.000119 -20.884476 9.628565 17.944910 139.999893
[Rope2_Seg07]
39 139.999893 0.000060 -0.000060 -6.918712 0.497138 8.591107 139.999893
40 139.999893 0.000060 -0.000060 -6.575019 0.684271 7.036103 139.999893
[Rope2_Seg09]
39 121.338966 0.000089 -0.000060 33.793236 -1.359788 -0.847141 121.338966
40 121.338966 0.000089 -0.000060 33.793236 -1.359788 -0.847141 121.338966
[R_mid_hand01]
39 104.680779 11.144459 -10.335981 -16.212063 45.237240 70.462852 105.778534
40 104.680779 11.144459 -10.335981 -16.212063 45.237247 70.462852 105.778534
[R_mid_hand02]
39 104.070427 2.443552 8.231699 49.067387 -67.749794 39.286469 104.424065
40 104.070427 2.443552 8.231699 49.067368 -67.749771 39.286453 104.424065
[R_mid_hand03]
39 106.028137 -11.221827 -5.996406 -177.101105 15.551026 -76.585571 106.788818
40 106.028137 -11.221827 -5.996406 -177.101105 15.551026 -76.585571 106.788818
[spine02]
39 129.756927 0.001550 0.000119 -0.292183 -4.051469 -3.729962 129.756927
40 129.756927 0.001550 0.000119 -0.251004 -4.054026 -4.310231 129.756927
[spine03]
39 78.613945 0.081365 -4.898987 1.504157 4.002297 10.761122 78.766487
40 78.613945 0.081354 -4.898987 1.529127 3.993318 11.118626 78.766487
[pelvis]
39 169.435242 0.051022 0.000000 -0.024803 -0.190772 2.521118 169.435257
40 169.435242 0.051022 0.000000 -0.027257 -0.190587 3.251840 169.435257
[null_rope03_connect]
39 -1.257226 -2.466202 137.391083 -12.916913 -88.101326 81.397934 137.418976
40 -1.257226 -2.466202 137.391083 2.288857 -85.117493 66.231323 137.418976
[null_rope04_connect]
39 -1.259640 -2.480268 -137.844437 -12.916913 -88.101326 81.397934 137.872513
40 -1.259640 -2.480268 -137.844437 2.288857 -85.117493 66.231323 137.872513
[Rope3_Seg01]
39 0.000000 0.000000 0.000000 -151.618256 -23.778461 -25.784603 0.000000
40 0.000000 0.000000 0.000000 -152.143692 -24.505215 -26.625509 0.000000
[Rope3_Seg02]
39 139.999924 -0.000119 0.000060 21.321543 -15.227080 17.173759 139.999924
40 139.999924 -0.000119 0.000060 20.942368 -15.482521 17.522234 139.999924
[Rope3_Seg03]
39 139.999924 -0.000119 0.000119 8.698739 -5.010152 16.060183 139.999924
40 139.999924 -0.000119 0.000119 8.186851 -4.893822 15.187805 139.999924
[Rope3_Seg04]
39 139.999924 0.000119 0.000000 3.493879 -1.707016 10.693757 139.999924
40 139.999924 0.000119 0.000000 3.498228 -1.908636 10.459225 139.999924
[Rope3_Seg05]
39 139.999924 -0.000238 0.000060 3.005517 -2.703355 14.444655 139.999924
40 139.999924 -0.000238 0.000060 3.013775 -2.618318 14.571197 139.999924
[Rope3_Seg06]
39 139.999893 -0.000119 -0.000060 1.272891 -2.351353 16.096632 139.999893
40 139.999893 -0.000119 -0.000060 1.288976 -1.981909 15.215662 139.999893
[Rope3_Seg07]
39 139.999771 0.000060 -0.000119 0.019844 -1.002754 9.811249 139.999771
40 139.999771 0.000060 -0.000119 0.125012 -0.861994 9.309110 139.999771
[Rope3_Seg08]
39 139.999985 -0.000060 0.000000 -0.157934 -0.594331 5.940048 139.999985
40 139.999985 -0.000060 0.000000 -0.058377 -0.510427 5.691853 139.999985
[Rope3_Seg09]
39 90.185997 -0.000179 -0.000060 89.793228 -1.359877 -0.847183 90.185997
40 90.185997 -0.000179 -0.000060 89.793228 -1.359877 -0.847183 90.185997
[R_rear_hand01]
39 103.366196 -6.073594 -10.757982 -177.714203 24.565966 -73.910957 104.101845
40 103.366196 -6.073594 -10.757982 -177.714203 24.565960 -73.910950 104.101845
[R_rear_hand02]
39 100.509819 12.039542 -7.992327 -12.874834 36.868500 72.167229 101.543350
40 100.509819 12.039542 -7.992327 -12.874829 36.868488 72.167213 101.543350
[R_rear_hand03]
39 101.539970 5.215704 5.435467 71.484627 -71.816643 21.513817 101.819031
40 101.539970 5.215704 5.435467 71.484581 -71.816628 21.513813 101.819031
[Rope4_Seg01]
39 0.000010 0.000012 -0.000047 54.659889 -12.574558 -143.956467 0.000050
40 0.000010 0.000011 -0.000044 52.043701 -9.675515 -143.586594 0.000047
[Rope4_Seg02]
39 139.999985 0.000060 0.000119 -10.557924 4.161597 -10.175883 139.999985
40 139.999985 0.000060 0.000119 -9.806324 4.902282 -9.535748 139.999985
[Rope4_Seg03]
39 139.999924 0.000000 -0.000238 -13.052517 6.664106 -12.504787 139.999924
40 139.999924 0.000000 -0.000238 -11.848651 7.293825 -11.843995 139.999924
[Rope4_Seg04]
39 139.999985 0.000000 0.000119 -12.094127 3.328376 -13.209627 139.999985
40 139.999985 0.000000 0.000119 -11.610144 3.745300 -13.704221 139.999985
[Rope4_Seg05]
39 139.999802 -0.000060 -0.000119 -7.232588 22.895004 -3.001734 139.999802
40 139.999802 -0.000060 -0.000119 -4.950861 24.054043 -0.335002 139.999802
[Rope4_Seg06]
39 139.999924 0.000000 0.000060 4.561710 41.205547 11.797296 139.999924
40 139.999924 0.000000 0.000060 6.142526 39.445599 15.640196 139.999924
[Rope4_Seg07]
39 139.999802 0.000000 0.000000 3.295197 16.824759 2.789975 139.999802
40 139.999802 0.000000 0.000000 2.900206 15.523260 3.712863 139.999802
[Rope4_Seg08]
39 139.999924 0.000000 0.000119 0.610141 6.886986 0.642854 139.999924
40 139.999924 0.000000 0.000119 0.300010 6.530849 1.148254 139.999924
[Rope4_Seg09]
39 90.185791 0.000060 0.000060 -135.617828 2.228885 0.850567 90.185791
40 90.185791 0.000060 0.000060 -135.617828 2.228885 0.850567 90.185791
[L_rear_hand01]
39 101.696655 -8.392275 -7.654577 -12.874827 -36.868492 107.832764 102.329041
40 101.696655 -8.392275 -7.654577 -12.874829 -36.868488 107.832764 102.329041
[L_rear_hand02]
39 102.726799 -1.568258 5.773216 71.484619 71.816643 158.486160 102.900848
40 102.726799 -1.568258 5.773216 71.484581 71.816628 158.486160 102.900848
[L_rear_hand03]
39 104.552910 9.721220 -10.420293 -177.714203 -24.565958 -106.089043 105.519653
40 104.552910 9.721220 -10.420293 -177.714203 -24.565960 -106.089035 105.519653
